<mxfile host="app.diagrams.net" agent="Mozilla/5.0 (Windows NT 10.0; Win64; x64) AppleWebKit/537.36 (KHTML, like Gecko) Chrome/133.0.0.0 Safari/537.36" version="26.1.0">
  <diagram name="Page-1" id="MY_CJ1JNKcbKfUyWV1zF">
    <mxGraphModel dx="2074" dy="2198" grid="1" gridSize="10" guides="1" tooltips="1" connect="1" arrows="1" fold="1" page="1" pageScale="1" pageWidth="850" pageHeight="1100" math="0" shadow="0">
      <root>
        <mxCell id="0" />
        <mxCell id="1" parent="0" />
        <mxCell id="pWUdVR1jth8w38b61zRj-26" style="edgeStyle=orthogonalEdgeStyle;rounded=0;orthogonalLoop=1;jettySize=auto;html=1;exitX=1;exitY=0.5;exitDx=0;exitDy=0;entryX=0.5;entryY=1;entryDx=0;entryDy=0;" edge="1" parent="1" source="pWUdVR1jth8w38b61zRj-3" target="pWUdVR1jth8w38b61zRj-15">
          <mxGeometry relative="1" as="geometry" />
        </mxCell>
        <mxCell id="pWUdVR1jth8w38b61zRj-27" value="3 返回订单id" style="edgeLabel;html=1;align=center;verticalAlign=middle;resizable=0;points=[];" vertex="1" connectable="0" parent="pWUdVR1jth8w38b61zRj-26">
          <mxGeometry x="-0.1764" y="3" relative="1" as="geometry">
            <mxPoint as="offset" />
          </mxGeometry>
        </mxCell>
        <mxCell id="pWUdVR1jth8w38b61zRj-3" value="创建订单" style="rounded=1;whiteSpace=wrap;html=1;" vertex="1" parent="1">
          <mxGeometry x="760" y="10" width="120" height="60" as="geometry" />
        </mxCell>
        <mxCell id="pWUdVR1jth8w38b61zRj-7" value="create plan" style="rounded=1;whiteSpace=wrap;html=1;" vertex="1" parent="1">
          <mxGeometry x="30" y="410" width="120" height="60" as="geometry" />
        </mxCell>
        <mxCell id="pWUdVR1jth8w38b61zRj-10" value="" style="edgeStyle=orthogonalEdgeStyle;rounded=0;orthogonalLoop=1;jettySize=auto;html=1;" edge="1" parent="1" source="pWUdVR1jth8w38b61zRj-8" target="pWUdVR1jth8w38b61zRj-9">
          <mxGeometry relative="1" as="geometry" />
        </mxCell>
        <mxCell id="pWUdVR1jth8w38b61zRj-8" value="subscribe" style="rounded=1;whiteSpace=wrap;html=1;" vertex="1" parent="1">
          <mxGeometry x="30" y="540" width="120" height="60" as="geometry" />
        </mxCell>
        <mxCell id="pWUdVR1jth8w38b61zRj-12" value="" style="edgeStyle=orthogonalEdgeStyle;rounded=0;orthogonalLoop=1;jettySize=auto;html=1;" edge="1" parent="1" source="pWUdVR1jth8w38b61zRj-9" target="pWUdVR1jth8w38b61zRj-11">
          <mxGeometry relative="1" as="geometry" />
        </mxCell>
        <mxCell id="pWUdVR1jth8w38b61zRj-9" value="webhook" style="whiteSpace=wrap;html=1;rounded=1;" vertex="1" parent="1">
          <mxGeometry x="240" y="540" width="120" height="60" as="geometry" />
        </mxCell>
        <mxCell id="pWUdVR1jth8w38b61zRj-11" value="check subscription status" style="whiteSpace=wrap;html=1;rounded=1;" vertex="1" parent="1">
          <mxGeometry x="580" y="540" width="120" height="60" as="geometry" />
        </mxCell>
        <mxCell id="pWUdVR1jth8w38b61zRj-28" style="edgeStyle=orthogonalEdgeStyle;rounded=0;orthogonalLoop=1;jettySize=auto;html=1;exitX=1;exitY=0.3333333333333333;exitDx=0;exitDy=0;exitPerimeter=0;entryX=0;entryY=0.5;entryDx=0;entryDy=0;" edge="1" parent="1" source="pWUdVR1jth8w38b61zRj-14" target="pWUdVR1jth8w38b61zRj-15">
          <mxGeometry relative="1" as="geometry" />
        </mxCell>
        <mxCell id="pWUdVR1jth8w38b61zRj-29" value="1 点击支付" style="edgeLabel;html=1;align=center;verticalAlign=middle;resizable=0;points=[];" vertex="1" connectable="0" parent="pWUdVR1jth8w38b61zRj-28">
          <mxGeometry x="-0.0524" y="-1" relative="1" as="geometry">
            <mxPoint as="offset" />
          </mxGeometry>
        </mxCell>
        <mxCell id="pWUdVR1jth8w38b61zRj-14" value="Actor" style="shape=umlActor;verticalLabelPosition=bottom;verticalAlign=top;html=1;outlineConnect=0;" vertex="1" parent="1">
          <mxGeometry x="120" y="30" width="30" height="60" as="geometry" />
        </mxCell>
        <mxCell id="pWUdVR1jth8w38b61zRj-22" value="" style="edgeStyle=orthogonalEdgeStyle;rounded=0;orthogonalLoop=1;jettySize=auto;html=1;" edge="1" parent="1" source="pWUdVR1jth8w38b61zRj-15" target="pWUdVR1jth8w38b61zRj-21">
          <mxGeometry relative="1" as="geometry" />
        </mxCell>
        <mxCell id="pWUdVR1jth8w38b61zRj-23" value="2 发起支付" style="edgeLabel;html=1;align=center;verticalAlign=middle;resizable=0;points=[];" vertex="1" connectable="0" parent="pWUdVR1jth8w38b61zRj-22">
          <mxGeometry x="-0.1333" y="-3" relative="1" as="geometry">
            <mxPoint as="offset" />
          </mxGeometry>
        </mxCell>
        <mxCell id="pWUdVR1jth8w38b61zRj-30" style="edgeStyle=orthogonalEdgeStyle;rounded=0;orthogonalLoop=1;jettySize=auto;html=1;exitX=0.5;exitY=0;exitDx=0;exitDy=0;entryX=0.5;entryY=0;entryDx=0;entryDy=0;" edge="1" parent="1" source="pWUdVR1jth8w38b61zRj-15" target="pWUdVR1jth8w38b61zRj-21">
          <mxGeometry relative="1" as="geometry" />
        </mxCell>
        <mxCell id="pWUdVR1jth8w38b61zRj-31" value="4 告知支付状态" style="edgeLabel;html=1;align=center;verticalAlign=middle;resizable=0;points=[];" vertex="1" connectable="0" parent="pWUdVR1jth8w38b61zRj-30">
          <mxGeometry x="-0.0323" y="1" relative="1" as="geometry">
            <mxPoint as="offset" />
          </mxGeometry>
        </mxCell>
        <mxCell id="pWUdVR1jth8w38b61zRj-15" value="frontend" style="rounded=1;whiteSpace=wrap;html=1;" vertex="1" parent="1">
          <mxGeometry x="290" y="160" width="120" height="60" as="geometry" />
        </mxCell>
        <mxCell id="pWUdVR1jth8w38b61zRj-24" style="edgeStyle=orthogonalEdgeStyle;rounded=0;orthogonalLoop=1;jettySize=auto;html=1;exitX=1;exitY=0.5;exitDx=0;exitDy=0;entryX=0;entryY=0.5;entryDx=0;entryDy=0;" edge="1" parent="1" source="pWUdVR1jth8w38b61zRj-21" target="pWUdVR1jth8w38b61zRj-3">
          <mxGeometry relative="1" as="geometry" />
        </mxCell>
        <mxCell id="pWUdVR1jth8w38b61zRj-34" value="" style="edgeStyle=orthogonalEdgeStyle;rounded=0;orthogonalLoop=1;jettySize=auto;html=1;" edge="1" parent="1" source="pWUdVR1jth8w38b61zRj-21" target="pWUdVR1jth8w38b61zRj-33">
          <mxGeometry relative="1" as="geometry">
            <Array as="points">
              <mxPoint x="720" y="190" />
              <mxPoint x="720" y="-80" />
            </Array>
          </mxGeometry>
        </mxCell>
        <mxCell id="pWUdVR1jth8w38b61zRj-21" value="backend" style="whiteSpace=wrap;html=1;rounded=1;" vertex="1" parent="1">
          <mxGeometry x="560" y="160" width="120" height="60" as="geometry" />
        </mxCell>
        <mxCell id="pWUdVR1jth8w38b61zRj-33" value="捕获订单，验证支付状态" style="whiteSpace=wrap;html=1;rounded=1;" vertex="1" parent="1">
          <mxGeometry x="760" y="-110" width="120" height="60" as="geometry" />
        </mxCell>
      </root>
    </mxGraphModel>
  </diagram>
</mxfile>
